<svg width="36" height="36" viewBox="0 0 36 36" fill="none" xmlns="http://www.w3.org/2000/svg">
<rect width="36" height="36" rx="18" fill="#4461F2" fill-opacity="0.1"/>
<path d="M13.6084 24.4167C14.2917 23.6833 15.3334 23.7417 15.9334 24.5417L16.775 25.6667C17.45 26.5583 18.5417 26.5583 19.2167 25.6667L20.0584 24.5417C20.6584 23.7417 21.7 23.6833 22.3834 24.4167C23.8667 26 25.075 25.475 25.075 23.2583V13.8667C25.0834 10.5083 24.3 9.66666 21.15 9.66666H14.85C11.7 9.66666 10.9167 10.5083 10.9167 13.8667V23.25C10.9167 25.475 12.1334 25.9917 13.6084 24.4167Z" stroke="#4461F2" stroke-width="1.5" stroke-linecap="round" stroke-linejoin="round"/>
<path d="M14.6667 13.8333H21.3334" stroke="#4461F2" stroke-width="1.5" stroke-linecap="round" stroke-linejoin="round"/>
<path d="M15.5 17.1667H20.5" stroke="#4461F2" stroke-width="1.5" stroke-linecap="round" stroke-linejoin="round"/>
</svg>
