<svg width="36" height="36" viewBox="0 0 36 36" fill="none" xmlns="http://www.w3.org/2000/svg">
<rect width="36" height="36" rx="18" fill="#4461F2" fill-opacity="0.15"/>
<path d="M27.1666 22.925C27.1833 23.55 27.0166 24.1416 26.7166 24.65C26.55 24.95 26.325 25.225 26.075 25.45C25.5 25.9833 24.7416 26.3083 23.9 26.3333C22.6833 26.3583 21.6083 25.7333 21.0166 24.775C20.7 24.2833 20.5083 23.6917 20.5 23.0667C20.475 22.0167 20.9416 21.0666 21.6916 20.4416C22.2583 19.975 22.975 19.6833 23.7583 19.6666C25.6 19.625 27.125 21.0833 27.1666 22.925Z" stroke="#4461F2" stroke-width="1.5" stroke-miterlimit="10" stroke-linecap="round" stroke-linejoin="round"/>
<path d="M22.5333 23.025L23.375 23.825L25.1167 22.1416" stroke="#4461F2" stroke-width="1.5" stroke-linecap="round" stroke-linejoin="round"/>
<path d="M10.6417 14.2002L18 18.4585L25.3084 14.2252" stroke="#4461F2" stroke-width="1.5" stroke-linecap="round" stroke-linejoin="round"/>
<path d="M18.0001 26.0085V18.4502" stroke="#4461F2" stroke-width="1.5" stroke-linecap="round" stroke-linejoin="round"/>
<path d="M26.0083 15.6417V20.3584C26.0083 20.4001 26.0084 20.4334 26 20.4751C25.4167 19.9667 24.6667 19.6668 23.8334 19.6668C23.05 19.6668 22.325 19.9418 21.75 20.4001C20.9834 21.0084 20.5 21.9501 20.5 23.0001C20.5 23.6251 20.675 24.2168 20.9833 24.7168C21.0583 24.8501 21.15 24.9751 21.25 25.0918L19.725 25.9334C18.775 26.4668 17.225 26.4668 16.275 25.9334L11.825 23.4668C10.8167 22.9084 9.9917 21.5084 9.9917 20.3584V15.6417C9.9917 14.4917 10.8167 13.0918 11.825 12.5334L16.275 10.0667C17.225 9.53341 18.775 9.53341 19.725 10.0667L24.175 12.5334C25.1834 13.0918 26.0083 14.4917 26.0083 15.6417Z" stroke="#4461F2" stroke-width="1.5" stroke-linecap="round" stroke-linejoin="round"/>
<path d="M22.1667 18.0334V15.9834L14.2584 11.4167" stroke="#4461F2" stroke-width="1.5" stroke-linecap="round" stroke-linejoin="round"/>
</svg>
