<svg width="36" height="36" viewBox="0 0 36 36" fill="none" xmlns="http://www.w3.org/2000/svg">
<rect width="36" height="36" rx="18" fill="#4461F2" fill-opacity="0.1"/>
<path d="M15.2266 19.9415C15.2266 21.0165 16.0516 21.8832 17.0766 21.8832H19.1682C20.0599 21.8832 20.7849 21.1249 20.7849 20.1915C20.7849 19.1749 20.3432 18.8165 19.6849 18.5832L16.3266 17.4165C15.6682 17.1832 15.2266 16.8249 15.2266 15.8082C15.2266 14.8749 15.9516 14.1165 16.8432 14.1165H18.9349C19.9599 14.1165 20.7849 14.9832 20.7849 16.0582" stroke="#4461F2" stroke-width="1.5" stroke-linecap="round" stroke-linejoin="round"/>
<path d="M18 13V23" stroke="#4461F2" stroke-width="1.5" stroke-linecap="round" stroke-linejoin="round"/>
<path d="M18 26.3333C22.6024 26.3333 26.3334 22.6024 26.3334 18C26.3334 13.3976 22.6024 9.66667 18 9.66667C13.3976 9.66667 9.66669 13.3976 9.66669 18C9.66669 22.6024 13.3976 26.3333 18 26.3333Z" stroke="#4461F2" stroke-width="1.5" stroke-linecap="round" stroke-linejoin="round"/>
</svg>
