<svg width="36" height="36" viewBox="0 0 36 36" fill="none" xmlns="http://www.w3.org/2000/svg">
<rect width="36" height="36" rx="18" fill="#4461F2" fill-opacity="0.15"/>
<path d="M23 16.9583C22.6583 16.9583 22.375 16.675 22.375 16.3333V14.6666C22.375 12.0416 21.6333 10.2916 18 10.2916C14.3667 10.2916 13.625 12.0416 13.625 14.6666V16.3333C13.625 16.675 13.3417 16.9583 13 16.9583C12.6583 16.9583 12.375 16.675 12.375 16.3333V14.6666C12.375 12.25 12.9583 9.04163 18 9.04163C23.0417 9.04163 23.625 12.25 23.625 14.6666V16.3333C23.625 16.675 23.3417 16.9583 23 16.9583Z" fill="#4461F2"/>
<path d="M18 24.0417C16.5084 24.0417 15.2917 22.825 15.2917 21.3333C15.2917 19.8417 16.5084 18.625 18 18.625C19.4917 18.625 20.7084 19.8417 20.7084 21.3333C20.7084 22.825 19.4917 24.0417 18 24.0417ZM18 19.875C17.2 19.875 16.5417 20.5333 16.5417 21.3333C16.5417 22.1333 17.2 22.7917 18 22.7917C18.8 22.7917 19.4584 22.1333 19.4584 21.3333C19.4584 20.5333 18.8 19.875 18 19.875Z" fill="#4461F2"/>
<path d="M22.1667 26.9584H13.8334C10.1584 26.9584 9.04169 25.8417 9.04169 22.1667V20.5C9.04169 16.825 10.1584 15.7084 13.8334 15.7084H22.1667C25.8417 15.7084 26.9584 16.825 26.9584 20.5V22.1667C26.9584 25.8417 25.8417 26.9584 22.1667 26.9584ZM13.8334 16.9584C10.85 16.9584 10.2917 17.525 10.2917 20.5V22.1667C10.2917 25.1417 10.85 25.7084 13.8334 25.7084H22.1667C25.15 25.7084 25.7084 25.1417 25.7084 22.1667V20.5C25.7084 17.525 25.15 16.9584 22.1667 16.9584H13.8334Z" fill="#4461F2"/>
</svg>
