<svg width="36" height="36" viewBox="0 0 36 36" fill="none" xmlns="http://www.w3.org/2000/svg">
<rect width="36" height="36" rx="18" fill="#4461F2" fill-opacity="0.15"/>
<path d="M18 26.9666C17.0916 26.9666 16.1916 26.6999 15.4833 26.1749L11.9 23.5C10.95 22.7916 10.2083 21.3083 10.2083 20.1333V13.9333C10.2083 12.65 11.15 11.2833 12.3583 10.8333L16.5166 9.27495C17.3416 8.96662 18.6416 8.96662 19.4666 9.27495L23.625 10.8333C24.8333 11.2833 25.775 12.65 25.775 13.9333V20.125C25.775 21.3083 25.0333 22.7833 24.0833 23.4916L20.5 26.1666C19.8083 26.6999 18.9083 26.9666 18 26.9666ZM16.9583 10.45L12.8 12.0083C12.0916 12.275 11.4666 13.175 11.4666 13.9416V20.1333C11.4666 20.925 12.025 22.0333 12.65 22.5L16.2333 25.175C17.1916 25.8916 18.8083 25.8916 19.775 25.175L23.3583 22.5C23.9916 22.025 24.5416 20.925 24.5416 20.1333V13.9333C24.5416 13.175 23.9166 12.275 23.2083 12L19.05 10.4416C18.4833 10.2416 17.5166 10.2416 16.9583 10.45Z" fill="#4461F2"/>
<path d="M16.8833 19.8583C16.725 19.8583 16.5667 19.8 16.4417 19.675L15.1 18.3333C14.8583 18.0917 14.8583 17.6917 15.1 17.45C15.3417 17.2084 15.7417 17.2084 15.9833 17.45L16.8833 18.35L20.025 15.2083C20.2667 14.9667 20.6667 14.9667 20.9083 15.2083C21.15 15.45 21.15 15.85 20.9083 16.0917L17.325 19.675C17.2 19.8 17.0417 19.8583 16.8833 19.8583Z" fill="#4461F2"/>
</svg>
