<svg width="36" height="36" viewBox="0 0 36 36" fill="none" xmlns="http://www.w3.org/2000/svg">
<rect width="36" height="36" rx="18" fill="#4461F2" fill-opacity="0.1"/>
<path d="M24.6417 16.3333H11.3083V23C11.3083 25.5 12.1417 26.3333 14.6417 26.3333H21.3083C23.8083 26.3333 24.6417 25.5 24.6417 23V16.3333Z" stroke="#4461F2" stroke-width="1.5" stroke-miterlimit="10" stroke-linecap="round" stroke-linejoin="round"/>
<path d="M25.9166 13.8333V14.6667C25.9166 15.5833 25.475 16.3333 24.25 16.3333H11.75C10.475 16.3333 10.0833 15.5833 10.0833 14.6667V13.8333C10.0833 12.9167 10.475 12.1667 11.75 12.1667H24.25C25.475 12.1667 25.9166 12.9167 25.9166 13.8333Z" stroke="#4461F2" stroke-width="1.5" stroke-miterlimit="10" stroke-linecap="round" stroke-linejoin="round"/>
<path d="M17.7 12.1667H13.1C12.8166 11.8583 12.825 11.3833 13.125 11.0833L14.3083 9.9C14.6167 9.59166 15.125 9.59166 15.4333 9.9L17.7 12.1667Z" stroke="#4461F2" stroke-width="1.5" stroke-miterlimit="10" stroke-linecap="round" stroke-linejoin="round"/>
<path d="M22.8917 12.1667H18.2917L20.5584 9.9C20.8667 9.59166 21.375 9.59166 21.6834 9.9L22.8667 11.0833C23.1667 11.3833 23.175 11.8583 22.8917 12.1667Z" stroke="#4461F2" stroke-width="1.5" stroke-miterlimit="10" stroke-linecap="round" stroke-linejoin="round"/>
<path d="M15.45 16.3333V20.6167C15.45 21.2833 16.1833 21.675 16.7417 21.3167L17.525 20.8C17.8083 20.6167 18.1667 20.6167 18.4417 20.8L19.1833 21.3C19.7333 21.6667 20.475 21.275 20.475 20.6083V16.3333H15.45Z" stroke="#4461F2" stroke-width="1.5" stroke-miterlimit="10" stroke-linecap="round" stroke-linejoin="round"/>
</svg>
