<svg width="36" height="36" viewBox="0 0 36 36" fill="none" xmlns="http://www.w3.org/2000/svg">
<rect width="36" height="36" rx="18" fill="#4461F2" fill-opacity="0.1"/>
<path d="M15.6333 17.0583C15.55 17.05 15.45 17.05 15.3583 17.0583C13.375 16.9917 11.8 15.3667 11.8 13.3667C11.8 11.325 13.45 9.66667 15.5 9.66667C17.5417 9.66667 19.2 11.325 19.2 13.3667C19.1917 15.3667 17.6167 16.9917 15.6333 17.0583Z" stroke="#4461F2" stroke-width="1.5" stroke-linecap="round" stroke-linejoin="round"/>
<path d="M21.675 11.3333C23.2916 11.3333 24.5917 12.6417 24.5917 14.25C24.5917 15.825 23.3417 17.1083 21.7833 17.1667C21.7167 17.1583 21.6417 17.1583 21.5667 17.1667" stroke="#4461F2" stroke-width="1.5" stroke-linecap="round" stroke-linejoin="round"/>
<path d="M11.4667 20.1333C9.45 21.4833 9.45 23.6833 11.4667 25.025C13.7583 26.5583 17.5167 26.5583 19.8083 25.025C21.825 23.675 21.825 21.475 19.8083 20.1333C17.525 18.6083 13.7667 18.6083 11.4667 20.1333Z" stroke="#4461F2" stroke-width="1.5" stroke-linecap="round" stroke-linejoin="round"/>
<path d="M23.2833 24.6667C23.8833 24.5417 24.45 24.3 24.9167 23.9417C26.2167 22.9667 26.2167 21.3583 24.9167 20.3833C24.4583 20.0333 23.9 19.8 23.3083 19.6667" stroke="#4461F2" stroke-width="1.5" stroke-linecap="round" stroke-linejoin="round"/>
</svg>
