<svg width="24" height="24" viewBox="0 0 24 24" fill="none" xmlns="http://www.w3.org/2000/svg">
<path d="M14.5 15.4399H9.5" stroke="white" stroke-width="1.5" stroke-miterlimit="10" stroke-linecap="round" stroke-linejoin="round"/>
<path d="M12 13V18" stroke="white" stroke-width="1.5" stroke-miterlimit="10" stroke-linecap="round" stroke-linejoin="round"/>
<path d="M12 21.9999H8.1C7.86 21.9999 7.62 21.9799 7.39 21.9499C4.21 21.7399 2.51 20.0399 2.3 16.8599C2.27 16.6299 2.25 16.3899 2.25 16.1499V14.1999C2.25 12.1899 3.47 10.4599 5.21 9.70995C5.81 9.45995 6.45 9.31995 7.13 9.31995H16.89C17.38 9.31995 17.86 9.38995 18.3 9.51995C20.3 10.1199 21.76 11.9899 21.76 14.1899V16.1399C21.76 16.3399 21.75 16.5399 21.74 16.7399C21.55 20.2399 19.6 21.9999 15.9 21.9999" stroke="white" stroke-width="1.5" stroke-linecap="round" stroke-linejoin="round"/>
<path d="M12.9 2.51997L12.87 2.58997L9.97001 9.31997H7.12001C6.44001 9.31997 5.79001 9.45997 5.20001 9.70997L6.95001 5.52997L6.99001 5.42997L7.06001 5.26997C7.08001 5.20997 7.10001 5.14997 7.13001 5.09997C8.44001 2.06997 9.92001 1.37997 12.9 2.51997Z" stroke="white" stroke-width="1.5" stroke-linecap="round" stroke-linejoin="round"/>
<path d="M18.29 9.52002C17.84 9.38002 17.36 9.32002 16.88 9.32002H9.96997L12.87 2.59002L12.9 2.52002C13.05 2.57002 13.19 2.64002 13.34 2.70002L15.55 3.63002C16.78 4.14002 17.64 4.67002 18.16 5.31002C18.26 5.43002 18.34 5.54002 18.41 5.67002C18.5 5.81002 18.57 5.95002 18.61 6.10002C18.65 6.19002 18.68 6.28002 18.7 6.36002C18.97 7.20002 18.81 8.23002 18.29 9.52002Z" stroke="white" stroke-width="1.5" stroke-linecap="round" stroke-linejoin="round"/>
<path d="M6.94999 5.53003L5.19999 9.71003C3.45999 10.46 2.23999 12.19 2.23999 14.2V11.27C2.23999 8.43003 4.25999 6.06003 6.94999 5.53003Z" stroke="white" stroke-width="1.5" stroke-linecap="round" stroke-linejoin="round"/>
<path d="M21.76 11.27V14.2C21.76 12 20.3 10.13 18.3 9.52998C18.82 8.22998 18.97 7.20998 18.72 6.35998C18.7 6.26998 18.67 6.17998 18.63 6.09998C20.49 7.05998 21.76 9.02998 21.76 11.27Z" stroke="white" stroke-width="1.5" stroke-linecap="round" stroke-linejoin="round"/>
</svg>
