<svg width="74" height="81" viewBox="0 0 74 81" fill="none" xmlns="http://www.w3.org/2000/svg">
<g opacity="0.55">
<path d="M19.5833 35.25V62.6667" stroke="white" stroke-width="5" stroke-linecap="round" stroke-linejoin="round"/>
<path d="M20.5625 33.2918C27.5926 33.2918 33.2916 27.5928 33.2916 20.5627C33.2916 13.5325 27.5926 7.8335 20.5625 7.8335C13.5324 7.8335 7.83331 13.5325 7.83331 20.5627C7.83331 27.5928 13.5324 33.2918 20.5625 33.2918Z" stroke="white" stroke-width="5" stroke-linecap="round" stroke-linejoin="round"/>
<path d="M19.5833 86.1665C26.0727 86.1665 31.3333 80.9058 31.3333 74.4165C31.3333 67.9272 26.0727 62.6665 19.5833 62.6665C13.094 62.6665 7.83331 67.9272 7.83331 74.4165C7.83331 80.9058 13.094 86.1665 19.5833 86.1665Z" stroke="white" stroke-width="5" stroke-linecap="round" stroke-linejoin="round"/>
<path d="M74.4167 86.1665C80.906 86.1665 86.1667 80.9058 86.1667 74.4165C86.1667 67.9272 80.906 62.6665 74.4167 62.6665C67.9273 62.6665 62.6667 67.9272 62.6667 74.4165C62.6667 80.9058 67.9273 86.1665 74.4167 86.1665Z" stroke="white" stroke-width="5" stroke-linecap="round" stroke-linejoin="round"/>
<path d="M20.0925 35.25C21.855 42.1042 28.1217 47.1959 35.5242 47.1567L48.9584 47.1175C59.22 47.0783 67.9542 53.6584 71.1659 62.8234" stroke="white" stroke-width="5" stroke-linecap="round" stroke-linejoin="round"/>
</g>
</svg>
